<svg width="80" height="80" viewBox="0 0 80 80" fill="none" xmlns="http://www.w3.org/2000/svg">
<path d="M73.3229 39.9974C73.3229 46.5901 71.368 53.0348 67.7052 58.5164C64.0425 63.998 58.8366 68.2705 52.7457 70.7934C46.6548 73.3163 39.9526 73.9764 33.4866 72.6902C27.0206 71.4041 21.0811 68.2294 16.4194 63.5676C11.7576 58.9059 8.58293 52.9664 7.29676 46.5004C6.01058 40.0344 6.67069 33.3322 9.19361 27.2413C11.7165 21.1504 15.989 15.9445 21.4706 12.2817C26.9522 8.61903 33.3969 6.66406 39.9896 6.66406C48.8301 6.66406 57.3086 10.176 63.5598 16.4272C69.811 22.6784 73.3229 31.1568 73.3229 39.9974Z" fill="#4A4DC7" stroke="#4A4DC7" stroke-width="1.5" stroke-linecap="round" stroke-linejoin="round"/>
<path d="M51.6562 40H31.6562" stroke="white" stroke-width="1.5" stroke-linecap="round" stroke-linejoin="round"/>
<path d="M38 30L28 40L38 50" stroke="white" stroke-width="1.5" stroke-linecap="round" stroke-linejoin="round"/>
</svg>
