<svg width="80" height="80" viewBox="0 0 80 80" fill="none" xmlns="http://www.w3.org/2000/svg">
<path d="M6.67707 40.0026C6.67707 33.4099 8.63204 26.9652 12.2947 21.4836C15.9575 16.002 21.1634 11.7295 27.2543 9.20662C33.3452 6.6837 40.0474 6.02358 46.5134 7.30976C52.9794 8.59593 58.9189 11.7706 63.5806 16.4324C68.2424 21.0941 71.4171 27.0336 72.7032 33.4996C73.9894 39.9656 73.3293 46.6678 70.8064 52.7587C68.2835 58.8496 64.011 64.0555 58.5294 67.7183C53.0478 71.381 46.6031 73.3359 40.0104 73.3359C31.1699 73.3359 22.6914 69.824 16.4402 63.5728C10.189 57.3216 6.67707 48.8432 6.67707 40.0026Z" fill="#4A4DC7" stroke="#4A4DC7" stroke-width="1.5" stroke-linecap="round" stroke-linejoin="round"/>
<path d="M28.3438 40L48.3438 40" stroke="white" stroke-width="1.5" stroke-linecap="round" stroke-linejoin="round"/>
<path d="M41.6563 50L51.6562 40L41.6562 30" stroke="white" stroke-width="1.5" stroke-linecap="round" stroke-linejoin="round"/>
</svg>
