<svg width="16" height="20" viewBox="0 0 16 20" fill="none" xmlns="http://www.w3.org/2000/svg">
<path d="M12.9768 9.18287C13.8768 8.24537 14.4286 6.9784 14.4286 5.58555V5.31233C14.4286 2.43019 12.0687 0.0917969 9.15982 0.0917969H1.23393C0.829464 0.0917969 0.5 0.421261 0.5 0.825725V19.0159C0.5 19.4525 0.853571 19.8061 1.29018 19.8061H9.82679C12.9607 19.8061 15.5 17.2829 15.5 14.1677V13.873C15.5 11.9177 14.4982 10.1954 12.9768 9.18287ZM3.07143 2.66323H9.09018C10.6196 2.66323 11.8571 3.85251 11.8571 5.32305V5.57751C11.8571 7.04537 10.617 8.23733 9.09018 8.23733H3.07143V2.66323ZM12.8911 14.165C12.8911 15.8498 11.5062 17.2159 9.79732 17.2159H3.07143V10.8248H9.79732C11.5062 10.8248 12.8911 12.1909 12.8911 13.8757V14.165Z" fill="black" fill-opacity="0.85"/>
</svg>
