<svg width="22" height="20" viewBox="0 0 22 20" fill="none" xmlns="http://www.w3.org/2000/svg">
<path d="M21.7132 1.43025H6.07031C5.95246 1.43025 5.85603 1.52667 5.85603 1.64453V3.14453C5.85603 3.26239 5.95246 3.35882 6.07031 3.35882H21.7132C21.831 3.35882 21.9275 3.26239 21.9275 3.14453V1.64453C21.9275 1.52667 21.831 1.43025 21.7132 1.43025ZM21.7132 9.03739H6.07031C5.95246 9.03739 5.85603 9.13382 5.85603 9.25167V10.7517C5.85603 10.8695 5.95246 10.966 6.07031 10.966H21.7132C21.831 10.966 21.9275 10.8695 21.9275 10.7517V9.25167C21.9275 9.13382 21.831 9.03739 21.7132 9.03739ZM21.7132 16.6445H6.07031C5.95246 16.6445 5.85603 16.741 5.85603 16.8588V18.3588C5.85603 18.4767 5.95246 18.5731 6.07031 18.5731H21.7132C21.831 18.5731 21.9275 18.4767 21.9275 18.3588V16.8588C21.9275 16.741 21.831 16.6445 21.7132 16.6445ZM0.0703125 2.39453C0.0703125 2.59151 0.109111 2.78657 0.184493 2.96856C0.259875 3.15054 0.370365 3.3159 0.509652 3.45519C0.64894 3.59448 0.814299 3.70497 0.996287 3.78035C1.17828 3.85573 1.37333 3.89453 1.57031 3.89453C1.7673 3.89453 1.96235 3.85573 2.14434 3.78035C2.32633 3.70497 2.49168 3.59448 2.63097 3.45519C2.77026 3.3159 2.88075 3.15054 2.95613 2.96856C3.03151 2.78657 3.07031 2.59151 3.07031 2.39453C3.07031 2.19755 3.03151 2.00249 2.95613 1.82051C2.88075 1.63852 2.77026 1.47316 2.63097 1.33387C2.49168 1.19458 2.32633 1.08409 2.14434 1.00871C1.96235 0.93333 1.7673 0.894531 1.57031 0.894531C1.37333 0.894531 1.17828 0.93333 0.996287 1.00871C0.814299 1.08409 0.64894 1.19458 0.509652 1.33387C0.370365 1.47316 0.259875 1.63852 0.184493 1.82051C0.109111 2.00249 0.0703125 2.19755 0.0703125 2.39453ZM0.0703125 10.0017C0.0703125 10.1987 0.109111 10.3937 0.184493 10.5757C0.259875 10.7577 0.370365 10.923 0.509652 11.0623C0.64894 11.2016 0.814299 11.3121 0.996287 11.3875C1.17828 11.4629 1.37333 11.5017 1.57031 11.5017C1.7673 11.5017 1.96235 11.4629 2.14434 11.3875C2.32633 11.3121 2.49168 11.2016 2.63097 11.0623C2.77026 10.923 2.88075 10.7577 2.95613 10.5757C3.03151 10.3937 3.07031 10.1987 3.07031 10.0017C3.07031 9.80469 3.03151 9.60964 2.95613 9.42765C2.88075 9.24566 2.77026 9.0803 2.63097 8.94101C2.49168 8.80173 2.32633 8.69124 2.14434 8.61586C1.96235 8.54047 1.7673 8.50167 1.57031 8.50167C1.37333 8.50167 1.17828 8.54047 0.996287 8.61586C0.814299 8.69124 0.64894 8.80173 0.509652 8.94101C0.370365 9.0803 0.259875 9.24566 0.184493 9.42765C0.109111 9.60964 0.0703125 9.80469 0.0703125 10.0017ZM0.0703125 17.6088C0.0703125 17.8058 0.109111 18.0009 0.184493 18.1828C0.259875 18.3648 0.370365 18.5302 0.509652 18.6695C0.64894 18.8088 0.814299 18.9193 0.996287 18.9946C1.17828 19.07 1.37333 19.1088 1.57031 19.1088C1.7673 19.1088 1.96235 19.07 2.14434 18.9946C2.32633 18.9193 2.49168 18.8088 2.63097 18.6695C2.77026 18.5302 2.88075 18.3648 2.95613 18.1828C3.03151 18.0009 3.07031 17.8058 3.07031 17.6088C3.07031 17.4118 3.03151 17.2168 2.95613 17.0348C2.88075 16.8528 2.77026 16.6874 2.63097 16.5482C2.49168 16.4089 2.32633 16.2984 2.14434 16.223C1.96235 16.1476 1.7673 16.1088 1.57031 16.1088C1.37333 16.1088 1.17828 16.1476 0.996287 16.223C0.814299 16.2984 0.64894 16.4089 0.509652 16.5482C0.370365 16.6874 0.259875 16.8528 0.184493 17.0348C0.109111 17.2168 0.0703125 17.4118 0.0703125 17.6088Z" fill="black" fill-opacity="0.85"/>
</svg>
