<svg width="24" height="20" viewBox="0 0 24 20" fill="none" xmlns="http://www.w3.org/2000/svg">
<path d="M23.1429 0.566406H0.857143C0.383036 0.566406 0 0.949442 0 1.42355V18.5664C0 19.0405 0.383036 19.4236 0.857143 19.4236H23.1429C23.617 19.4236 24 19.0405 24 18.5664V1.42355C24 0.949442 23.617 0.566406 23.1429 0.566406ZM22.0714 17.495H1.92857V16.4262L5.63839 12.0253L9.65893 16.7932L15.9134 9.37891L22.0714 16.6807V17.495ZM22.0714 14.0182L16.0768 6.90926C15.9911 6.80748 15.8357 6.80748 15.75 6.90926L9.65893 14.1307L5.80179 9.55837C5.71607 9.45659 5.56071 9.45659 5.475 9.55837L1.92857 13.7637V2.49498H22.0714V14.0182ZM6.42857 8.49498C6.73812 8.49498 7.04463 8.43401 7.33061 8.31555C7.61659 8.19709 7.87644 8.02347 8.09532 7.80459C8.3142 7.58571 8.48783 7.32586 8.60629 7.03988C8.72474 6.75389 8.78571 6.44738 8.78571 6.13784C8.78571 5.82829 8.72474 5.52178 8.60629 5.2358C8.48783 4.94981 8.3142 4.68996 8.09532 4.47108C7.87644 4.2522 7.61659 4.07858 7.33061 3.96012C7.04463 3.84166 6.73812 3.78069 6.42857 3.78069C5.80342 3.78069 5.20387 4.02903 4.76182 4.47108C4.31977 4.91313 4.07143 5.51268 4.07143 6.13784C4.07143 6.76299 4.31977 7.36254 4.76182 7.80459C5.20387 8.24664 5.80342 8.49498 6.42857 8.49498ZM6.42857 5.38784C6.84375 5.38784 7.17857 5.72266 7.17857 6.13784C7.17857 6.55301 6.84375 6.88784 6.42857 6.88784C6.01339 6.88784 5.67857 6.55301 5.67857 6.13784C5.67857 5.72266 6.01339 5.38784 6.42857 5.38784Z" fill="black" fill-opacity="0.85"/>
</svg>
