<svg width="351" height="316" viewBox="0 0 351 316" fill="none" xmlns="http://www.w3.org/2000/svg">
<path d="M292.71 58H40.2898C34.0546 58 29 61.9258 29 66.7686V306.231C29 311.074 34.0546 315 40.2898 315H292.71C298.945 315 304 311.074 304 306.231V66.7686C304 61.9258 298.945 58 292.71 58Z" fill="#BDB4F4"/>
<path d="M28.9001 252.094H304.112V315.095H40.0011C25.9003 315.095 28.9001 303.623 28.9001 289.5V252.094Z" fill="#FFE18D"/>
<path d="M331.227 184.369H275.491C272.192 184.369 269.523 181.699 269.523 178.398V110.971C269.523 107.67 272.192 105 275.491 105H331.227C334.526 105 337.194 107.67 337.194 110.971V178.398C337.194 181.69 334.526 184.369 331.227 184.369Z" fill="#FFE18D"/>
<g opacity="0.5">
<path d="M283.996 125.201C280.948 125.201 278.461 122.72 278.461 119.663C278.461 116.613 280.94 114.125 283.996 114.125C287.051 114.125 289.531 116.606 289.531 119.663C289.531 122.713 287.044 125.201 283.996 125.201ZM283.996 114.884C281.365 114.884 279.219 117.031 279.219 119.663C279.219 122.295 281.365 124.442 283.996 124.442C286.627 124.442 288.773 122.295 288.773 119.663C288.773 117.023 286.627 114.884 283.996 114.884Z" fill="white"/>
</g>
<path opacity="0.5" d="M328.046 120.042H293.957C293.745 120.042 293.578 119.875 293.578 119.663C293.578 119.45 293.745 119.283 293.957 119.283H328.046C328.258 119.283 328.425 119.45 328.425 119.663C328.425 119.875 328.251 120.042 328.046 120.042Z" fill="white"/>
<path opacity="0.5" d="M283.996 142.369C280.948 142.369 278.461 139.888 278.461 136.831C278.461 133.774 280.94 131.293 283.996 131.293C287.051 131.293 289.531 133.774 289.531 136.831C289.531 139.888 287.044 142.369 283.996 142.369ZM283.996 132.059C281.365 132.059 279.219 134.206 279.219 136.838C279.219 139.471 281.365 141.618 283.996 141.618C286.627 141.618 288.773 139.471 288.773 136.838C288.773 134.206 286.627 132.059 283.996 132.059Z" fill="white"/>
<path opacity="0.5" d="M328.046 137.21H293.957C293.745 137.21 293.578 137.043 293.578 136.83C293.578 136.618 293.745 136.451 293.957 136.451H328.046C328.258 136.451 328.425 136.618 328.425 136.83C328.425 137.043 328.251 137.21 328.046 137.21Z" fill="white"/>
<path opacity="0.5" d="M283.996 159.361C280.948 159.361 278.461 156.88 278.461 153.823C278.461 150.766 280.94 148.285 283.996 148.285C287.051 148.285 289.531 150.766 289.531 153.823C289.531 156.88 287.044 159.361 283.996 159.361ZM283.996 149.044C281.365 149.044 279.219 151.191 279.219 153.823C279.219 156.456 281.365 158.602 283.996 158.602C286.627 158.602 288.773 156.456 288.773 153.823C288.773 151.191 286.627 149.044 283.996 149.044Z" fill="white"/>
<path opacity="0.5" d="M328.046 154.202H293.957C293.745 154.202 293.578 154.035 293.578 153.823C293.578 153.61 293.745 153.443 293.957 153.443H328.046C328.258 153.443 328.425 153.61 328.425 153.823C328.425 154.035 328.251 154.202 328.046 154.202Z" fill="white"/>
<path opacity="0.5" d="M284.551 176.347C281.503 176.347 279.016 173.867 279.016 170.809C279.016 167.752 281.495 165.271 284.551 165.271C287.606 165.271 290.085 167.752 290.085 170.809C290.085 173.867 287.606 176.347 284.551 176.347ZM284.551 166.038C281.92 166.038 279.774 168.185 279.774 170.817C279.774 173.449 281.92 175.596 284.551 175.596C287.181 175.596 289.327 173.449 289.327 170.817C289.327 168.185 287.189 166.038 284.551 166.038Z" fill="white"/>
<path opacity="0.5" d="M328.601 171.196H294.512C294.3 171.196 294.133 171.029 294.133 170.817C294.133 170.604 294.3 170.438 294.512 170.438H328.601C328.813 170.438 328.98 170.604 328.98 170.817C328.98 171.029 328.813 171.196 328.601 171.196Z" fill="white"/>
<path d="M236.703 103.369H180.967C177.668 103.369 175 100.699 175 97.3978V29.9708C175 26.6698 177.668 24 180.967 24H236.703C240.003 24 242.671 26.6698 242.671 29.9708V97.3978C242.671 100.69 240.003 103.369 236.703 103.369Z" fill="#F79E8C"/>
<g opacity="0.5">
<path d="M189.472 44.2009C186.424 44.2009 183.938 41.7202 183.938 38.663C183.938 35.6133 186.417 33.125 189.472 33.125C192.528 33.125 195.007 35.6057 195.007 38.663C195.007 41.7126 192.52 44.2009 189.472 44.2009ZM189.472 33.8836C186.841 33.8836 184.696 36.0305 184.696 38.663C184.696 41.2954 186.841 43.4423 189.472 43.4423C192.103 43.4423 194.249 41.2954 194.249 38.663C194.249 36.023 192.103 33.8836 189.472 33.8836Z" fill="white"/>
</g>
<g opacity="0.5">
<path d="M233.523 39.0418H199.434C199.221 39.0418 199.055 38.8749 199.055 38.6625C199.055 38.4501 199.221 38.2832 199.434 38.2832H233.523C233.735 38.2832 233.902 38.4501 233.902 38.6625C233.902 38.8749 233.727 39.0418 233.523 39.0418Z" fill="white"/>
</g>
<g opacity="0.5">
<path d="M189.472 61.3687C186.424 61.3687 183.938 58.888 183.938 55.8308C183.938 52.7735 186.417 50.2928 189.472 50.2928C192.528 50.2928 195.007 52.7735 195.007 55.8308C195.007 58.888 192.52 61.3687 189.472 61.3687ZM189.472 51.059C186.841 51.059 184.696 53.2059 184.696 55.8384C184.696 58.4708 186.841 60.6177 189.472 60.6177C192.103 60.6177 194.249 58.4708 194.249 55.8384C194.249 53.2059 192.103 51.059 189.472 51.059Z" fill="white"/>
</g>
<path opacity="0.5" d="M233.523 56.2096H199.434C199.221 56.2096 199.055 56.0427 199.055 55.8303C199.055 55.6179 199.221 55.451 199.434 55.451H233.523C233.735 55.451 233.902 55.6179 233.902 55.8303C233.902 56.0427 233.727 56.2096 233.523 56.2096Z" fill="white"/>
<path opacity="0.5" d="M189.472 78.3611C186.424 78.3611 183.938 75.8804 183.938 72.8231C183.938 69.7659 186.417 67.2852 189.472 67.2852C192.528 67.2852 195.007 69.7659 195.007 72.8231C195.007 75.8804 192.52 78.3611 189.472 78.3611ZM189.472 68.0438C186.841 68.0438 184.696 70.1907 184.696 72.8231C184.696 75.4556 186.841 77.6025 189.472 77.6025C192.103 77.6025 194.249 75.4556 194.249 72.8231C194.249 70.1907 192.103 68.0438 189.472 68.0438Z" fill="white"/>
<path opacity="0.5" d="M233.523 73.202H199.434C199.221 73.202 199.055 73.0351 199.055 72.8227C199.055 72.6103 199.221 72.4434 199.434 72.4434H233.523C233.735 72.4434 233.902 72.6103 233.902 72.8227C233.902 73.0351 233.727 73.202 233.523 73.202Z" fill="white"/>
<path opacity="0.5" d="M190.027 95.3474C186.979 95.3474 184.492 92.8667 184.492 89.8095C184.492 86.7522 186.972 84.2715 190.027 84.2715C193.083 84.2715 195.562 86.7522 195.562 89.8095C195.562 92.8667 193.083 95.3474 190.027 95.3474ZM190.027 85.0377C187.396 85.0377 185.25 87.1846 185.25 89.817C185.25 92.4495 187.396 94.5964 190.027 94.5964C192.658 94.5964 194.804 92.4495 194.804 89.817C194.804 87.1846 192.666 85.0377 190.027 85.0377Z" fill="white"/>
<path opacity="0.5" d="M234.077 90.1961H199.988C199.776 90.1961 199.609 90.0292 199.609 89.8168C199.609 89.6044 199.776 89.4375 199.988 89.4375H234.077C234.29 89.4375 234.456 89.6044 234.456 89.8168C234.456 90.0292 234.29 90.1961 234.077 90.1961Z" fill="white"/>
<path d="M285.235 233.595H198.57L208.246 172.898C208.596 170.714 210.249 169.119 212.185 169.119H290.699C293.205 169.119 295.09 171.729 294.638 174.553L285.235 233.595Z" fill="#E2F2FF"/>
<path d="M285.369 237.398H168.296C167.58 237.398 167 236.818 167 236.101V234.242C167 233.525 167.58 232.945 168.296 232.945H285.369V237.398V237.398Z" fill="#E2F2FF"/>
<path d="M248.877 212.763C253.227 212.763 256.754 209.234 256.754 204.881C256.754 200.529 253.227 197 248.877 197C244.527 197 241 200.529 241 204.881C241 209.234 244.527 212.763 248.877 212.763Z" fill="#FAFAFE"/>
<path d="M119.925 114.086C122.051 116.136 127.159 121.628 128.762 130.312C130.544 139.95 127.96 147.984 125.258 151.466C122.575 154.916 119.971 156.481 119.229 156.906C116.818 158.272 114.5 158.624 113.082 158.717C113.142 163.427 113.135 168.608 113.195 173.317C104.934 173.317 96.7062 173.304 88.4522 173.304C88.5118 166.239 88.6112 158.723 88.6708 151.659C88.313 151.718 85.4115 152.156 83.0665 150.027C82.8081 149.795 80.6022 147.725 80.8937 144.594C81.152 141.901 83.093 139.658 85.4115 138.982C87.591 138.345 89.6247 139.234 90.2938 139.526C91.0887 139.871 91.6915 140.289 92.1022 140.614C95.8782 139.134 101.112 136.567 106.385 132.103C114.009 125.648 117.977 118.391 119.918 114.086H119.925Z" fill="url(#paint0_linear_1_24)"/>
<path d="M137.304 191.147C143.153 183.426 133.236 173.064 129.507 166.815C126.678 162.079 124.088 156.241 123.32 153.688C122.558 154.424 121.683 155.459 119.226 156.911C117.093 158.178 113.926 158.789 113.078 158.722C113.078 162.298 113.356 177.151 113.403 180.726C113.648 199.187 119.345 214.849 137.304 191.147V191.147Z" fill="black"/>
<path d="M90.081 171.401C88.868 171.63 86.3848 171.831 84.92 171.745C82.8088 171.613 81.2868 171.481 79.5703 170.834C82.8374 173.2 86.9112 176.357 90.184 178.724C90.1096 176.443 90.1382 173.848 90.0867 171.401H90.081Z" fill="#FD9988"/>
<path d="M112.782 136.214C113.477 136.214 114.041 135.365 114.041 134.317C114.041 133.269 113.477 132.42 112.782 132.42C112.087 132.42 111.523 133.269 111.523 134.317C111.523 135.365 112.087 136.214 112.782 136.214Z" fill="#13191A"/>
<path d="M123.993 136.214C124.688 136.214 125.252 135.365 125.252 134.317C125.252 133.269 124.688 132.42 123.993 132.42C123.298 132.42 122.734 133.269 122.734 134.317C122.734 135.365 123.298 136.214 123.993 136.214Z" fill="#13191A"/>
<path d="M120.504 141.463C120.504 141.463 120.457 141.463 120.437 141.463L118.072 141.144C117.794 141.104 117.595 140.846 117.629 140.567C117.668 140.288 117.933 140.089 118.205 140.123L119.987 140.361V134.318C119.987 134.033 120.219 133.801 120.504 133.801C120.788 133.801 121.02 134.033 121.02 134.318V140.952C121.02 141.098 120.954 141.244 120.848 141.337C120.755 141.416 120.636 141.463 120.51 141.463H120.504Z" fill="#13191A"/>
<path d="M116.25 130.412C116.211 130.412 116.171 130.412 116.131 130.399C114.985 130.12 114.263 130.12 113.177 130.12C112.415 130.12 111.322 130.226 110.182 130.405C109.898 130.445 109.639 130.259 109.593 129.981C109.546 129.702 109.739 129.437 110.017 129.39C110.719 129.278 112.064 129.092 113.177 129.092C114.29 129.092 115.104 129.092 116.376 129.404C116.655 129.47 116.82 129.749 116.754 130.027C116.701 130.259 116.489 130.419 116.257 130.419L116.25 130.412Z" fill="#13191A"/>
<path d="M122.074 128.03C121.889 128.03 121.71 127.931 121.617 127.752C121.491 127.5 121.59 127.188 121.842 127.062C123.313 126.319 124.333 126.206 125.87 126.087C126.161 126.047 126.4 126.272 126.42 126.558C126.44 126.843 126.234 127.088 125.949 127.108C124.492 127.221 123.604 127.32 122.306 127.977C122.233 128.017 122.154 128.03 122.074 128.03V128.03Z" fill="#13191A"/>
<path d="M88.7877 147.679C88.1319 147.679 87.6483 147.5 87.3237 147.142C86.9461 146.731 86.9395 146.233 86.9329 145.835C86.9329 145.523 86.9196 145.251 86.7805 144.986C86.5686 144.595 86.0982 144.303 85.3828 144.137C85.1045 144.071 84.9323 143.799 84.9986 143.52C85.0648 143.241 85.3364 143.069 85.6146 143.135C86.6282 143.374 87.3237 143.832 87.6881 144.495C87.9464 144.979 87.9597 145.444 87.9663 145.815C87.9663 146.147 87.9796 146.326 88.0922 146.445C88.271 146.644 88.7215 146.698 89.3707 146.598C89.6291 146.558 89.9139 146.744 89.9603 147.029C90.0066 147.308 89.8145 147.573 89.5297 147.62C89.2647 147.659 89.0262 147.679 88.801 147.679H88.7877Z" fill="#13191A"/>
<path d="M127.957 127.054C127.811 124.759 128.189 117.933 124.519 113.376C119.484 107.107 112.204 106.079 108.527 105.555C106.441 105.256 95.1857 103.001 87.1437 110.397C83.0034 114.205 80.1615 117.051 74.6897 130.132C68.2706 145.476 63.1962 152.368 60.0033 155.638C55.7305 160.016 50.3779 162.63 34.3467 167.552C7.76279 178.524 8.17351 211.606 34.3467 219.871C38.1492 221.225 67.8201 223.726 73.1329 222.658C73.7623 211.546 73.7623 202.047 74.4578 190.438C75.4382 187.692 75.1136 184.488 75.4184 180.448C75.8556 174.736 66.323 175.506 68.5422 175.227C74.1796 175.227 82.798 173.31 88.4354 173.31C88.6209 167.041 88.4685 157.934 88.654 151.665C88.654 151.665 83.9308 152.394 81.8176 148.501C80.8504 146.723 79.8568 144.633 81.97 141.575C84.4806 137.933 87.6471 138.676 88.5745 138.948C89.3562 139.18 91.6483 140.388 92.0921 140.613C95.4507 139.32 100.73 136.54 105.043 133.197C113.661 126.497 118.027 118.59 119.915 114.085C121.313 115.1 121.677 116.042 123.287 117.913C125.877 120.931 127.149 124.911 127.957 127.054V127.054Z" fill="black"/>
<path d="M117.274 146.427C116.764 146.427 116.201 146.373 115.565 146.241C113.154 145.737 111.71 144.085 111.233 143.541C111.047 143.329 111.041 142.97 111.253 142.785C111.465 142.599 111.763 142.592 111.948 142.798L112.001 142.858C112.465 143.388 113.691 144.795 115.771 145.232C118.745 145.856 119.878 144.616 120.428 144.025L120.547 143.892C120.746 143.687 121.07 143.68 121.269 143.879C121.474 144.078 121.481 144.403 121.282 144.602L121.176 144.715C120.706 145.226 119.606 146.427 117.261 146.427H117.274Z" fill="#13191A"/>
<path d="M84.2812 246.092C94.0145 244.79 100.955 242.807 117.63 240C129.67 237.972 138.938 236.163 149.476 234.109C149.15 228.516 148.858 222.858 148.605 217.148C148.186 207.686 147.887 198.379 147.694 189.228C147.528 187.938 146.125 179.577 140.893 174.068C139.683 172.792 139.118 171.819 135.175 169.376C134.517 168.968 132.256 167.879 130.528 167.697C130.076 167.652 129.597 167.671 129.072 167.762C107.664 170.031 91.4482 171.813 70.0668 174.12C65.2068 174.645 55.7527 177.918 51.3381 185.786C47.9341 191.859 48.466 198.495 48.4195 201.224C49.1109 210.622 49.8688 220.11 50.6932 229.669C51.1919 235.483 52.4817 246.002 53.0202 251.75C64.4888 249.955 74.2021 247.46 84.2812 246.105V246.092Z" fill="#4A4DC7"/>
<path d="M50.0721 195.099C49.566 189.595 51.7398 183.377 56.116 180.351C60.3887 177.402 68.7099 179.566 72.235 184.086C76.0132 193.918 81.6373 214.102 85.5823 222.623C103.714 211.22 131.731 190.816 151.876 180.199C159 204.806 151.876 180.199 159 204.806C133.059 219.683 121.852 226.026 95.9104 240.903C94.0587 242.003 86.6231 246.996 78.0317 247C70.1936 247 66.4441 244.446 64.1784 241.496C58.8878 225.375 54.6093 212.199 50.0721 195.094V195.099Z" fill="url(#paint1_linear_1_24)"/>
<path d="M323.058 236.564H10.2476C4.7908 236.564 0.367188 240.995 0.367188 246.46C0.367188 251.925 4.7908 256.356 10.2476 256.356H323.058C328.515 256.356 332.939 251.925 332.939 246.46C332.939 240.995 328.515 236.564 323.058 236.564Z" fill="#FFCA33"/>
<path d="M151.713 180.205C161.226 173.934 175.065 166.167 185.394 160.797C186.767 160.086 190.323 159.654 191.13 160.863C191.938 162.072 191.099 164.8 188.256 166.159C184.443 168.555 180.629 170.951 176.814 173.339C178.565 173.127 180.235 173.79 181.1 175.058C182.209 176.679 181.825 179.052 180.069 180.609C181.577 180.655 182.903 181.443 183.528 182.671C184.223 184.049 183.172 186.43 182.022 187.659C182.172 187.739 184.732 188.047 184.796 189.875C184.856 191.608 183.438 192.657 181.122 193.846L154.972 207.099C153.887 198.131 152.794 189.165 151.71 180.197L151.713 180.205Z" fill="url(#paint2_linear_1_24)"/>
<path d="M65.2489 23.0573C64.3995 21.5618 62.2088 21.6782 61.5114 23.2454C60.5367 25.4395 58.9809 27.938 56.4594 30.1142C54.7158 31.6276 52.9185 32.6307 51.3269 33.3023C49.8337 33.9381 49.5208 35.9173 50.7994 36.9113C53.0169 38.6308 55.449 40.8248 57.8274 43.5741C59.2581 45.2309 60.4741 46.8697 61.5024 48.428C62.4323 49.825 64.8197 49.7623 65.5351 48.2399C66.4203 46.3593 67.3055 45.0249 69.8449 42.0428C71.4544 40.1532 73.3857 38.6129 75.2635 37.0636C76.5332 36.0158 76.8014 33.7769 75.3618 32.9889C73.654 32.0665 71.7494 30.7858 69.8985 29.0216C67.8151 27.0425 66.313 24.9469 65.24 23.0573H65.2489Z" fill="#81CE67"/>
<path d="M32.3482 30.4377C31.9995 29.8198 31.0786 29.8646 30.7924 30.5183C30.3901 31.4318 29.7373 32.4706 28.6912 33.3841C27.9669 34.0109 27.2158 34.4318 26.5541 34.7095C25.9282 34.9692 25.803 35.802 26.3306 36.214C27.2516 36.9304 28.2709 37.8438 29.2545 38.9901C29.8536 39.6797 30.3543 40.3603 30.7835 41.014C31.168 41.5962 32.1694 41.5693 32.4645 40.9335C32.8311 40.1454 33.1977 39.5991 34.2617 38.3543C34.9324 37.5662 35.7371 36.9214 36.515 36.2766C37.0426 35.8378 37.1588 34.9065 36.5597 34.5841C35.8444 34.199 35.0575 33.6617 34.2796 32.9273C33.4123 32.1034 32.7864 31.2348 32.3393 30.4467L32.3482 30.4377Z" fill="#81CE67"/>
<defs>
<linearGradient id="paint0_linear_1_24" x1="129.352" y1="143.705" x2="80.8605" y2="143.705" gradientUnits="userSpaceOnUse">
<stop stop-color="#FD9988"/>
<stop offset="0.1" stop-color="#FDA697"/>
<stop offset="0.34" stop-color="#FDC0B6"/>
<stop offset="0.58" stop-color="#FDD4CC"/>
<stop offset="0.8" stop-color="#FDE0DA"/>
<stop offset="1" stop-color="#FEE4DF"/>
</linearGradient>
<linearGradient id="paint1_linear_1_24" x1="112.873" y1="179" x2="112.873" y2="247" gradientUnits="userSpaceOnUse">
<stop stop-color="#7B7DF2"/>
<stop offset="1" stop-color="#4A4DC7"/>
</linearGradient>
<linearGradient id="paint2_linear_1_24" x1="184.751" y1="190.864" x2="157.673" y2="171.724" gradientUnits="userSpaceOnUse">
<stop stop-color="#FD9988"/>
<stop offset="0.1" stop-color="#FDA697"/>
<stop offset="0.34" stop-color="#FDC0B6"/>
<stop offset="0.58" stop-color="#FDD4CC"/>
<stop offset="0.8" stop-color="#FDE0DA"/>
<stop offset="1" stop-color="#FEE4DF"/>
</linearGradient>
</defs>
</svg>
